<svg xmlns="http://www.w3.org/2000/svg">

  <!-- Маркер местоположения -->
  <symbol id="marker" viewBox="0 0 30 30">
    <path d="M14.9939 0C8.36497 0 2.96875 5.39623 2.96875 12.0252C2.96875 12.7799 3.03793 13.5409 3.18259 14.283C3.18888 14.327 3.21403 14.4591 3.26435 14.6855C3.44674 15.4969 3.71718 16.2956 4.06938 17.0566C5.36498 20.1069 8.21403 24.7925 14.4656 29.8113C14.6228 29.9371 14.8115 30 15.0002 30C15.1889 30 15.3776 29.9371 15.5348 29.8113C21.7801 24.7925 24.6354 20.1069 25.931 17.0566C26.2832 16.2956 26.5537 15.5031 26.736 14.6855C26.7864 14.4591 26.8115 14.327 26.8178 14.283C26.9562 13.5409 27.0316 12.7799 27.0316 12.0252C27.0191 5.39623 21.6228 0 14.9939 0ZM25.1323 13.9874C25.1323 14 25.126 14.0126 25.126 14.0252C25.1197 14.0566 25.1008 14.1509 25.0694 14.2956C25.0694 14.3019 25.0694 14.3019 25.0694 14.3082C24.9121 15.0126 24.6794 15.6981 24.3713 16.3585C24.365 16.3648 24.365 16.3774 24.3587 16.3836C23.1826 19.1698 20.604 23.4214 14.9939 28.0566C9.38384 23.4214 6.80523 19.1698 5.62913 16.3836C5.62284 16.3774 5.62284 16.3648 5.61655 16.3585C5.31466 15.7044 5.08196 15.0126 4.91843 14.3082C4.91843 14.3019 4.91843 14.3019 4.91843 14.2956C4.8807 14.1509 4.86812 14.0566 4.86183 14.0252C4.86183 14.0126 4.85554 14 4.85554 13.9811C4.72976 13.3333 4.66686 12.6792 4.66686 12.0189C4.66686 6.32704 9.30208 1.69182 14.9939 1.69182C20.6857 1.69182 25.3209 6.32704 25.3209 12.0189C25.3209 12.6855 25.2581 13.3459 25.1323 13.9874Z"/>
    <path d="M14.9941 4.52197C10.7866 4.52197 7.35889 7.94965 7.35889 12.1572C7.35889 16.3647 10.7866 19.7924 14.9941 19.7924C19.2016 19.7924 22.6293 16.3647 22.6293 12.1572C22.6293 7.94965 19.2016 4.52197 14.9941 4.52197ZM14.9941 18.0943C11.7174 18.0943 9.057 15.4276 9.057 12.1572C9.057 8.88675 11.7237 6.22009 14.9941 6.22009C18.2645 6.22009 20.9312 8.88675 20.9312 12.1572C20.9312 15.4276 18.2708 18.0943 14.9941 18.0943Z"/>
  </symbol>

  <!-- Иконка избранного -->
  <symbol id="favourites" viewBox="0 0 24 22">
    <path fill-rule="evenodd" d="M12 22c-.316-.02-.56-.147-.848-.278a23.542 23.542 0 0 1-4.781-2.942C3.777 16.705 1 13.449 1 9a6 6 0 0 1 6-6 6.183 6.183 0 0 1 5 2.568A6.183 6.183 0 0 1 17 3a6 6 0 0 1 6 6c0 4.448-2.78 7.705-5.375 9.78a23.599 23.599 0 0 1-4.78 2.942c-.543.249-.732.278-.845.278Z" clip-rule="evenodd"></path>
  </symbol>

  <!-- Иконка профиля -->
  <symbol id="profile" viewBox="0 0 24 25">
    <path d="M20.8224 18.899C17.3834 18.1071 14.1825 17.413 15.7325 14.493C20.4524 5.60539 16.9834 0.852417 12.0005 0.852417C6.91847 0.852417 3.53648 5.78789 8.26847 14.493C9.86547 17.43 6.54347 18.1241 3.17848 18.899C0.105486 19.607 -0.00951396 21.1288 0.000486017 23.7896L0.00448601 24.7868H23.9944L23.9984 23.8205C24.0104 21.1398 23.9064 19.61 20.8224 18.899Z"/>
  </symbol>

  <!-- Иконка крестика -->
  <symbol id="plus-icon" viewBox="0 0 16 16" fill="none">
    <line y1="8" x2="16" y2="8" stroke="black" stroke-width="2"></line>
    <line x1="8" y1="16" x2="8" stroke="black" stroke-width="2"></line>
  </symbol>

  <!-- Иконка авторизации -->
  <symbol id="sign-in" viewBox="0 0 32 32">
    <g clip-path="url(#clip0_169_139)">
      <path fill-rule="evenodd" clip-rule="evenodd" d="M6.69727 23.4418C6.69727 22.8256 7.19735 22.3255 7.81355 22.3255C8.42975 22.3255 8.92983 22.8256 8.92983 23.4418V27.9069C8.92983 28.401 9.12617 28.8729 9.47451 29.2225C9.82435 29.5708 10.296 29.7672 10.7901 29.7672H23.4411C23.9352 29.7672 24.4072 29.5708 24.7567 29.2225C25.1051 28.8727 25.3014 28.401 25.3014 27.9069V4.09311C25.3014 3.59901 25.1051 3.12705 24.7567 2.7775C24.4069 2.42916 23.9352 2.23281 23.4411 2.23281H10.7901C10.296 2.23281 9.82407 2.42915 9.47451 2.7775C9.12618 3.12733 8.92983 3.59902 8.92983 4.09311V8.55824C8.92983 9.17444 8.42975 9.67452 7.81355 9.67452C7.19735 9.67452 6.69727 9.17444 6.69727 8.55824V4.09311C6.69727 3.00796 7.12883 1.96618 7.89551 1.19825C8.66345 0.431777 9.70548 0 10.7904 0H23.4413C24.5265 0 25.5683 0.43156 26.3362 1.19825C27.1027 1.96618 27.5345 3.00822 27.5345 4.09311V27.9069C27.5345 28.992 27.1029 30.0338 26.3362 30.8018C25.5683 31.5682 24.5262 32 23.4413 32H10.7904C9.70523 32 8.66345 31.5684 7.89551 30.8018C7.12904 30.0338 6.69727 28.9918 6.69727 27.9069V23.4418Z" fill="black"/>
      <path fill-rule="evenodd" clip-rule="evenodd" d="M1.11628 17.1159C0.500081 17.1159 0 16.6158 0 15.9996C0 15.3834 0.500081 14.8833 1.11628 14.8833H16.7442C17.3604 14.8833 17.8605 15.3834 17.8605 15.9996C17.8605 16.6158 17.3604 17.1159 16.7442 17.1159H1.11628Z" fill="black"/>
      <path fill-rule="evenodd" clip-rule="evenodd" d="M11.4901 11.5793C11.0541 11.1448 11.0541 10.4361 11.4901 10.0016C11.9247 9.56555 12.6333 9.56555 13.0678 10.0016L18.2772 15.211C18.7133 15.647 18.7133 16.3527 18.2772 16.7887L13.0678 21.9981C12.6333 22.4341 11.9246 22.4341 11.4901 21.9981C11.0541 21.5635 11.0541 20.8549 11.4901 20.4204L15.9091 15.9998L11.4901 11.5793Z" fill="black"/>
    </g>
    <defs>
      <clipPath id="clip0_169_139">
        <rect width="32" height="32" fill="white"/>
      </clipPath>
    </defs>
  </symbol>

  <!-- Иконка корзины -->
  <symbol id="basket" viewBox="0 0 30 24">
    <path d="M29.999 0.846924L29.0703 3.34009H26.659L22.3165 18.2991H5.76777L-0.000976562 4.58667H21.014L20.309 7.07984H3.75902L7.43027 15.8059H20.4653L24.7553 0.846924H29.999ZM10.624 19.5457C9.58902 19.5457 8.74902 20.3834 8.74902 21.4156C8.74902 22.449 9.58902 23.2854 10.624 23.2854C11.659 23.2854 12.499 22.449 12.499 21.4156C12.499 20.3834 11.659 19.5457 10.624 19.5457ZM19.249 10.8196L16.874 19.5457C15.839 19.5457 14.999 20.3821 14.999 21.4156C14.999 22.449 15.839 23.2854 16.874 23.2854C17.909 23.2854 18.749 22.449 18.749 21.4156C18.749 20.3834 17.909 19.5457 16.874 19.5457L19.249 10.8196Z"/>
  </symbol>

  <!-- Иконка процентов -->
  <symbol id="percent" viewBox="0 0 17 17">
    <path d="M6.14209 1.98291C6.73682 2.65967 7.03418 3.57568 7.03418 4.73096C7.03418 5.88623 6.73682 6.80566 6.14209 7.48926C5.54736 8.17285 4.75098 8.51465 3.75293 8.51465C2.75488 8.51465 1.9585 8.17285 1.36377 7.48926C0.775879 6.80566 0.481934 5.88623 0.481934 4.73096C0.481934 3.57568 0.775879 2.65967 1.36377 1.98291C1.9585 1.29932 2.75488 0.95752 3.75293 0.95752C4.75098 0.95752 5.54736 1.29932 6.14209 1.98291ZM3.75293 6.90479C4.13574 6.90479 4.43311 6.71338 4.64502 6.33057C4.86377 5.94092 4.97314 5.40771 4.97314 4.73096C4.97314 4.04736 4.86377 3.51416 4.64502 3.13135C4.43311 2.7417 4.13574 2.54688 3.75293 2.54688C3.37695 2.54688 3.07959 2.7417 2.86084 3.13135C2.64893 3.51416 2.54297 4.04736 2.54297 4.73096C2.54297 5.40771 2.64893 5.94092 2.86084 6.33057C3.07959 6.71338 3.37695 6.90479 3.75293 6.90479ZM3.95801 16H1.72266L7.45459 8.15576L12.5405 1.20361H14.7554L9.17725 8.84277L3.95801 16ZM15.1143 9.65283C15.709 10.3364 16.0063 11.2559 16.0063 12.4111C16.0063 13.5664 15.709 14.4858 15.1143 15.1694C14.5195 15.8462 13.7231 16.1846 12.7251 16.1846C11.7271 16.1846 10.9307 15.8462 10.3359 15.1694C9.74805 14.4858 9.4541 13.5664 9.4541 12.4111C9.4541 11.2559 9.74805 10.3364 10.3359 9.65283C10.9307 8.96924 11.7271 8.62744 12.7251 8.62744C13.7231 8.62744 14.5195 8.96924 15.1143 9.65283ZM11.833 14.0005C12.0518 14.3901 12.3491 14.585 12.7251 14.585C13.1011 14.585 13.3984 14.3901 13.6172 14.0005C13.8359 13.6108 13.9453 13.0776 13.9453 12.4009C13.9453 11.7241 13.8359 11.1909 13.6172 10.8013C13.3984 10.4116 13.1011 10.2168 12.7251 10.2168C12.3491 10.2168 12.0518 10.4116 11.833 10.8013C11.6211 11.1909 11.5151 11.7241 11.5151 12.4009C11.5151 13.0776 11.6211 13.6108 11.833 14.0005Z"/>
  </symbol>

  <!-- Иконка дома -->
  <symbol id="house" viewBox="0 0 18 22">
    <path d="M6.83333 13.3429C6.55719 13.3429 6.33333 13.5667 6.33333 13.8429V19.7C6.33333 19.9761 6.10948 20.2 5.83333 20.2H1.5C1.22386 20.2 1 19.9761 1 19.7V8.08711C1 7.94115 1.06378 7.80247 1.1746 7.70748L8.6746 1.27891C8.86185 1.11842 9.13815 1.11842 9.3254 1.27891L16.8254 7.70748C16.9362 7.80247 17 7.94115 17 8.08711V19.7C17 19.9761 16.7761 20.2 16.5 20.2H12.1667C11.8905 20.2 11.6667 19.9761 11.6667 19.7V13.8429C11.6667 13.5667 11.4428 13.3429 11.1667 13.3429H6.83333Z" stroke-width="2" stroke-linecap="round" stroke-linejoin="round"/>
  </symbol>

  <!-- Иконка регистрации -->
  <symbol id="registration" viewBox="0 0 20 20">
    <path d="M10 9.70754C10.9595 9.70754 11.8974 9.42288 12.6952 8.88954C13.493 8.3562 14.1148 7.59814 14.482 6.71123C14.8492 5.82432 14.9453 4.84839 14.7581 3.90685C14.5709 2.96531 14.1088 2.10045 13.4304 1.42164C12.7519 0.742827 11.8875 0.28055 10.9464 0.0932661C10.0054 -0.0940178 9.02995 0.00210296 8.14349 0.369473C7.25704 0.736844 6.49937 1.35896 5.96631 2.15716C5.43324 2.95536 5.14872 3.89379 5.14872 4.85377C5.15143 6.14024 5.66341 7.37324 6.57262 8.28291C7.48182 9.19258 8.71419 9.70483 10 9.70754ZM10 1.49821C10.6552 1.49821 11.2957 1.6926 11.8405 2.0568C12.3853 2.42101 12.8099 2.93866 13.0606 3.54431C13.3114 4.14996 13.377 4.8164 13.2492 5.45936C13.1213 6.10231 12.8058 6.6929 12.3425 7.15645C11.8792 7.61999 11.2889 7.93567 10.6463 8.06356C10.0037 8.19145 9.33758 8.12581 8.73224 7.87494C8.1269 7.62407 7.60951 7.19924 7.24549 6.65418C6.88147 6.10911 6.68718 5.46828 6.68718 4.81273C6.70061 3.94164 7.05524 3.11062 7.67478 2.49844C8.29431 1.88626 9.12926 1.54184 10 1.53925V1.49821Z"/>
    <path d="M10 11.2878C5.08718 11.2878 0 13.4941 0 17.178V18.2042C0 18.6805 0.189102 19.1372 0.525706 19.474C0.862309 19.8108 1.31884 20 1.79487 20H18.2051C18.6812 20 19.1377 19.8108 19.4743 19.474C19.8109 19.1372 20 18.6805 20 18.2042V17.178C20 13.4633 14.9231 11.2878 10 11.2878ZM18.4615 18.2042C18.4615 18.2722 18.4345 18.3375 18.3864 18.3856C18.3384 18.4337 18.2731 18.4607 18.2051 18.4607H1.79487C1.72687 18.4607 1.66165 18.4337 1.61356 18.3856C1.56548 18.3375 1.53846 18.2722 1.53846 18.2042V17.178C1.53846 14.5818 5.91795 12.8271 10 12.8271C14.0821 12.8271 18.4615 14.5818 18.4615 17.178V18.2042Z"/>
  </symbol>

  <!-- Иконка ящика -->
  <symbol id="box" viewBox="0 0 18 17">
    <path d="M11.1708 3.14282H17.0714V15.1641C17.0714 15.6815 16.6056 16 16.1009 16H1.89286C1.3882 16 1 15.6019 1 15.0844V3.14282H6.82298" stroke-width="1.5" stroke-miterlimit="10"/>
    <path d="M11.3853 3.14286H17.0165C17.0553 3.14286 17.0942 3.11088 17.0553 3.07889L14.9582 1H3.11323L1.01609 3.07889C0.97725 3.11088 1.01609 3.14286 1.05492 3.14286H6.68614" stroke-width="1.5" stroke-miterlimit="10"/>
    <path d="M11.7141 3.14286L10.7824 1H7.38178L6.35693 3.14286" stroke-width="1.5" stroke-miterlimit="10"/>
    <path d="M11.7141 3.14282V7.42854L9.10419 5.92274L6.35693 7.42854V3.14282" stroke-width="1.5" stroke-miterlimit="10"/>
    <path d="M10.9864 11.7143H7.1218C6.67898 11.7143 6.35693 11.276 6.35693 10.7889V10.4967C6.35693 9.96102 6.71924 9.57141 7.1218 9.57141H10.9461C11.389 9.57141 11.711 10.0097 11.711 10.4967V10.7889C11.7513 11.3247 11.389 11.7143 10.9864 11.7143Z" stroke-width="1.5" stroke-miterlimit="10"/>
  </symbol>

  <!-- Иконка поиска -->
  <symbol id="search-icon" viewBox="0 0 25 24" fill="none">
    <path d="M24.0889 22.2056L18.4027 16.8577C20.2569 15.0556 21.4313 12.6142 21.4313 9.88208C21.4313 4.41787 16.7339 0 10.9241 0C5.1143 0 0.416992 4.41787 0.416992 9.88208C0.416992 15.3463 5.1143 19.7642 10.9241 19.7642C13.1492 19.7642 15.2506 19.0666 16.9812 17.9621L22.791 23.4263C22.9764 23.6007 23.2236 23.6589 23.4709 23.6589C23.7181 23.6589 23.9653 23.6007 24.1507 23.4263C24.4598 23.0776 24.4598 22.5544 24.0889 22.2056ZM2.27119 9.88208C2.27119 5.40608 6.16501 1.7439 10.9241 1.7439C15.6832 1.7439 19.5771 5.40608 19.5771 9.88208C19.5771 14.3581 15.6832 18.0203 10.9241 18.0203C6.16501 18.0203 2.27119 14.3581 2.27119 9.88208Z" fill="#2F3035"/>
  </symbol>

  <!-- Иконка фильтрации товаров в мобилке -->
  <symbol id="filter-icon" viewBox="0 0 22 22">
    <path fill-rule="evenodd" clip-rule="evenodd" d="M12.874 8a4.002 4.002 0 01-7.748 0H3a1 1 0 010-2h2.126a4.002 4.002 0 017.748 0H21a1 1 0 110 2h-8.126zM11 7a2 2 0 11-4 0 2 2 0 014 0zm.126 11a4.002 4.002 0 007.748 0H21a1 1 0 100-2h-2.126a4.002 4.002 0 00-7.748 0H3a1 1 0 100 2h8.126zM13 17a2 2 0 104 0 2 2 0 00-4 0z"/>
  </symbol>

  <!-- Иконка календаря -->
  <symbol id="calendar-icon" viewBox="0 0 24 24" fill="none">
    <g clip-path="url(#clip0_28_15)">
      <path d="M20 3H19V1H17V3H7V1H5V3H4C2.9 3 2 3.9 2 5V21C2 22.1 2.9 23 4 23H20C21.1 23 22 22.1 22 21V5C22 3.9 21.1 3 20 3ZM20 21H4V10H20V21ZM20 8H4V5H20V8Z" fill="#f68050"/>
    </g>
    <defs>
      <clipPath id="clip0_28_15">
        <rect width="24" height="24" fill="white"/>
      </clipPath>
    </defs>
  </symbol>

  <!-- Иконка инстаграма -->
  <symbol id="instagram" viewBox="0 0 30 30">
    <g clip-path="url(#clip0_58_1)">
      <path d="M15.0046 7.29749C10.7509 7.29749 7.30713 10.745 7.30713 14.995C7.30713 19.2487 10.7546 22.6925 15.0046 22.6925C19.2584 22.6925 22.7021 19.245 22.7021 14.995C22.7021 10.7412 19.2546 7.29749 15.0046 7.29749ZM15.0046 19.9912C12.2434 19.9912 10.0084 17.755 10.0084 14.995C10.0084 12.235 12.2446 9.99874 15.0046 9.99874C17.7646 9.99874 20.0009 12.235 20.0009 14.995C20.0021 17.755 17.7659 19.9912 15.0046 19.9912Z"/>
      <path d="M21.1848 0.095454C18.4248 -0.033296 11.5885 -0.027046 8.82605 0.095454C6.39855 0.209204 4.2573 0.795454 2.53105 2.5217C-0.353954 5.4067 0.0147958 9.29421 0.0147958 14.9955C0.0147958 20.8305 -0.310204 24.628 2.53105 27.4692C5.4273 30.3642 9.37104 29.9855 15.0048 29.9855C20.7848 29.9855 22.7798 29.9892 24.8235 29.198C27.6023 28.1192 29.6998 25.6355 29.9048 21.1742C30.0348 18.413 30.0273 11.578 29.9048 8.81546C29.6573 3.5492 26.831 0.355454 21.1848 0.095454ZM25.5535 25.5605C23.6623 27.4517 21.0385 27.283 14.9685 27.283C8.71854 27.283 6.2123 27.3755 4.38355 25.5417C2.2773 23.4455 2.65855 20.0792 2.65855 14.9755C2.65855 8.0692 1.9498 3.09545 8.88105 2.74045C10.4735 2.6842 10.9423 2.66545 14.951 2.66545L15.0073 2.70295C21.6685 2.70295 26.8948 2.00545 27.2085 8.93545C27.2798 10.5167 27.296 10.9917 27.296 14.9942C27.2948 21.1717 27.4123 23.693 25.5535 25.5605Z"/>
      <path d="M23.0077 8.79245C24.0012 8.79245 24.8065 7.98712 24.8065 6.9937C24.8065 6.00027 24.0012 5.19495 23.0077 5.19495C22.0143 5.19495 21.209 6.00027 21.209 6.9937C21.209 7.98712 22.0143 8.79245 23.0077 8.79245Z"/>
    </g>
    <defs>
      <clipPath id="clip0_58_1">
        <rect width="30" height="30" fill="white"/>
      </clipPath>
    </defs>
  </symbol>

  <!-- Иконка вконтакте -->
  <symbol id="vkontakte" viewBox="0 0 30 30">
    <path d="M24.8938 16.285C24.4088 15.6725 24.5475 15.4 24.8938 14.8525C24.9 14.8462 28.9037 9.31375 29.3162 7.4375L29.3188 7.43625C29.5238 6.7525 29.3188 6.25 28.3275 6.25H25.0475C24.2125 6.25 23.8275 6.68125 23.6213 7.16375C23.6213 7.16375 21.9513 11.1613 19.5887 13.7525C18.8263 14.5012 18.4738 14.7413 18.0575 14.7413C17.8525 14.7413 17.5338 14.5013 17.5338 13.8175V7.43625C17.5338 6.61625 17.3 6.25 16.6087 6.25H11.4513C10.9275 6.25 10.6163 6.6325 10.6163 6.98875C10.6163 7.76625 11.7975 7.945 11.92 10.1325V14.8787C11.92 15.9187 11.7312 16.11 11.3125 16.11C10.1975 16.11 7.49125 12.0962 5.8875 7.5025C5.56375 6.61125 5.2475 6.25125 4.40625 6.25125H1.125C0.18875 6.25125 0 6.6825 0 7.165C0 8.0175 1.115 12.2562 5.185 17.8562C7.8975 21.6788 11.7175 23.75 15.1925 23.75C17.2812 23.75 17.5363 23.29 17.5363 22.4988C17.5363 18.8463 17.3475 18.5012 18.3937 18.5012C18.8787 18.5012 19.7137 18.7413 21.6637 20.585C23.8925 22.7712 24.2588 23.75 25.5063 23.75H28.7862C29.7212 23.75 30.195 23.29 29.9225 22.3825C29.2987 20.4738 25.0838 16.5475 24.8938 16.285Z"/>
  </symbol>

  <!-- Иконка фейсбука -->
  <symbol id="facebook" viewBox="0 0 30 30">
    <g clip-path="url(#clip0_58_7)">
      <path d="M17.4188 29.8048C17.2938 29.8252 17.1684 29.8439 17.0425 29.8611C17.1684 29.8439 17.2938 29.8252 17.4188 29.8048Z"/>
      <path d="M17.7188 29.7535C17.659 29.7645 17.5993 29.7746 17.5396 29.7849C17.5993 29.7746 17.659 29.7645 17.7188 29.7535Z"/>
      <path d="M16.7072 29.9027C16.5609 29.9192 16.4137 29.9338 16.2661 29.9462C16.4137 29.9338 16.5609 29.9192 16.7072 29.9027Z"/>
      <path d="M16.9952 29.8674C16.9249 29.8768 16.8542 29.8855 16.7837 29.8938C16.8542 29.8855 16.9249 29.8768 16.9952 29.8674Z"/>
      <path d="M18.1271 29.6725C18.0745 29.6837 18.0216 29.6949 17.9688 29.7057C18.0216 29.6949 18.0745 29.6837 18.1271 29.6725Z"/>
      <path d="M19.1404 29.4207C19.0978 29.4328 19.0553 29.4442 19.0127 29.4561C19.0553 29.4442 19.0978 29.4328 19.1404 29.4207Z"/>
      <path d="M18.834 29.5045C18.7878 29.5166 18.7413 29.529 18.6948 29.5407C18.7413 29.529 18.7878 29.5169 18.834 29.5045Z"/>
      <path d="M18.433 29.6047C18.384 29.6162 18.3346 29.6269 18.2852 29.6379C18.3346 29.6269 18.384 29.6162 18.433 29.6047Z"/>
      <path d="M16.2615 29.9467C16.1826 29.9533 16.1036 29.9592 16.0244 29.9645C16.1036 29.9592 16.1826 29.9533 16.2615 29.9467Z"/>
      <path d="M30 15C30 6.717 23.283 0 15 0C6.717 0 0 6.717 0 15C0 23.283 6.717 30 15 30C15.0881 30 15.1758 29.9982 15.2637 29.9966V18.3197H12.041V14.564H15.2637V11.8002C15.2637 8.59497 17.2204 6.85043 20.0796 6.85043C21.4487 6.85043 22.6257 6.95251 22.9688 6.99806V10.348H20.9972C19.4417 10.348 19.1405 11.0873 19.1405 12.1719V14.564H22.8598L22.375 18.3197H19.1405V29.4205C25.4102 27.6231 30 21.8468 30 15Z"/>
      <path d="M15.9911 29.9666C15.835 29.9766 15.6782 29.9846 15.521 29.9899C15.6782 29.9846 15.835 29.9766 15.9911 29.9666Z"/>
      <path d="M15.5127 29.9904C15.4298 29.9931 15.3468 29.9952 15.2637 29.9965C15.3468 29.9952 15.4298 29.9931 15.5127 29.9904Z"/>
    </g>
    <defs>
      <clipPath id="clip0_58_7">
        <rect width="30" height="30" fill="white"/>
      </clipPath>
    </defs>
  </symbol>

  <!-- Иконка ютубa -->
  <symbol id="youtube" viewBox="0 0 30 30">
    <g clip-path="url(#clip0_58_20)">
      <path d="M13.1318 17.8102L18.0111 15L13.1318 12.1898V17.8102Z"/>
      <path d="M15 0C6.717 0 0 6.717 0 15C0 23.283 6.717 30 15 30C23.283 30 30 23.283 30 15C30 6.717 23.283 0 15 0ZM24.3727 15.0153C24.3727 15.0153 24.3727 18.0574 23.9868 19.5243C23.7705 20.3272 23.1374 20.9603 22.3345 21.1764C20.8676 21.5625 15 21.5625 15 21.5625C15 21.5625 9.14772 21.5625 7.66548 21.161C6.86256 20.945 6.22948 20.3117 6.01318 19.5087C5.62706 18.0574 5.62706 15 5.62706 15C5.62706 15 5.62706 11.9582 6.01318 10.4913C6.22925 9.68834 6.8779 9.03969 7.66548 8.82362C9.13239 8.4375 15 8.4375 15 8.4375C15 8.4375 20.8676 8.4375 22.3345 8.83896C23.1374 9.05502 23.7705 9.68834 23.9868 10.4913C24.3883 11.9582 24.3727 15.0153 24.3727 15.0153Z"/>
    </g>
    <defs>
      <clipPath id="clip0_58_20">
        <rect width="30" height="30" fill="white"/>
      </clipPath>
    </defs>
  </symbol>

  <!-- Иконка раскладки товаров - вариант-1 -->
  <symbol id="layout-1" viewBox="0 0 23 21" fill="none">
    <rect x="1" y="1" width="21" height="19" stroke-width="2"/>
    <rect x="7" y="6" width="2" height="2" fill="#2F3035" stroke-width="2"/>
    <rect x="7" y="13" width="2" height="2" fill="#2F3035" stroke-width="2"/>
    <rect x="14" y="6" width="2" height="2" fill="#2F3035" stroke-width="2"/>
    <rect x="14" y="13" width="2" height="2" fill="#2F3035" stroke-width="2"/>
  </symbol>

  <!-- Иконка раскладки товаров - вариант-2 -->
  <symbol id="layout-2" viewBox="0 0 25 19">
    <g>
      <rect x="6" width="19" height="3" rx="1.5"/>
      <rect x="6" y="8" width="19" height="3" rx="1.5"/>
      <rect x="6" y="16" width="19" height="3" rx="1.5"/>
      <rect width="3" height="3" rx="1.5"/>
      <rect y="8" width="3" height="3" rx="1.5"/>
      <rect y="16" width="3" height="3" rx="1.5"/>
    </g>
  </symbol>

  <!-- Иконка сравнения -->
  <symbol id="compare-icon" viewBox="0 0 20 28">
    <rect x="16" y="15.7708" width="4" height="11.7255" rx="2"/>
    <rect x="8" y="0.527588" width="4" height="26.9687" rx="2"/>
    <rect y="9.90796" width="4" height="17.5883" rx="2"/>
  </symbol>

  <!-- Иконка поиска -->
  <symbol id="search-icon" viewBox="0 0 16 17">
    <path fill-rule="evenodd" clip-rule="evenodd" d="M6.16666 12.5613C2.76091 12.5613 0 9.74937 0 6.28066C0 2.81195 2.76091 0 6.16666 0C9.57241 0 12.3333 2.81195 12.3333 6.28066C12.3333 7.77037 11.8241 9.13895 10.9732 10.2157L15.8047 15.1366C16.0651 15.4018 16.0651 15.8317 15.8047 16.0969C15.5444 16.362 15.1223 16.362 14.8619 16.0969L10.0304 11.1759C8.97322 12.0426 7.62941 12.5613 6.16666 12.5613ZM6.16666 11.2026C8.83604 11.2026 11 8.99866 11 6.27996C11 3.56125 8.83604 1.3573 6.16666 1.3573C3.49727 1.3573 1.33331 3.56125 1.33331 6.27996C1.33331 8.99866 3.49727 11.2026 6.16666 11.2026Z"/>
  </symbol>

  <!-- Иконка крестика -->
  <!-- cross - крестик -->
  <symbol id="cross" viewBox="0 0 14 14">
    <path fill-rule="evenodd" clip-rule="evenodd" d="M14 1.41L12.59 0 7 5.59 1.41 0 0 1.41 5.59 7 0 12.59 1.41 14 7 8.41 12.59 14 14 12.59 8.41 7 14 1.41z"/>
  </symbol>

  <!-- Иконка вопроса в кружке - пояснительная информация -->
  <symbol id="info" viewBox="0 0 20 20">
    <path fill-rule="evenodd" clip-rule="evenodd" d="M10 2.75C5.99594 2.75 2.75 5.99594 2.75 10C2.75 14.0041 5.99594 17.25 10 17.25C14.0041 17.25 17.25 14.0041 17.25 10C17.25 5.99594 14.0041 2.75 10 2.75ZM1.25 10C1.25 5.16751 5.16751 1.25 10 1.25C14.8325 1.25 18.75 5.16751 18.75 10C18.75 14.8325 14.8325 18.75 10 18.75C5.16751 18.75 1.25 14.8325 1.25 10Z"/>
    <path fill-rule="evenodd" clip-rule="evenodd" d="M8.71589 7.11122C8.42236 7.31995 8.25 7.6026 8.25 8H6.75C6.75 7.06406 7.20264 6.34672 7.84661 5.88878C8.46827 5.44671 9.25443 5.25 10 5.25C10.7456 5.25 11.5317 5.44671 12.1534 5.88878C12.7974 6.34672 13.25 7.06406 13.25 8C13.25 9.40844 12.3169 10.1062 11.6801 10.5519C11.629 10.5877 11.5804 10.6215 11.5343 10.6536C11.2637 10.8417 11.075 10.9728 10.9296 11.1231C10.7911 11.2662 10.75 11.3698 10.75 11.5C10.75 11.9142 10.4142 12.25 10 12.25C9.58579 12.25 9.25 11.9142 9.25 11.5C9.25 10.8802 9.52139 10.4213 9.85167 10.08C10.1087 9.81437 10.4378 9.58723 10.6993 9.40668C10.7415 9.37759 10.7819 9.34971 10.8199 9.32308C11.4331 8.89383 11.75 8.59156 11.75 8C11.75 7.6026 11.5776 7.31995 11.2841 7.11122C10.9683 6.88662 10.5044 6.75 10 6.75C9.49557 6.75 9.03173 6.88662 8.71589 7.11122Z"/>
    <path fill-rule="evenodd" clip-rule="evenodd" d="M10 13.25C10.4142 13.25 10.75 13.5858 10.75 14V15H9.25V14C9.25 13.5858 9.58579 13.25 10 13.25Z"/>
  </symbol>

  <!-- Иконка пальца вверх - лайк -->
  <symbol id="like" viewBox="0 0 24 24">
    <path fill-rule="evenodd" clip-rule="evenodd" d="M17.318 24h-.002l-2.525-.004c-3.22 0-5.534-.275-7.28-.867-.37-.127-.691-.267-.993-.4-.48-.209-.827-.36-1.163-.36H3.693C1.906 22.369 1 21.52 1 19.849l.001-7.442c0-1.602 1.057-2.637 2.692-2.637l.327.002c.49 0 1.09-.042 1.484-.345l.03-.054c.044-.082.068-.126.094-.17.036-.089.093-.187.162-.28.299-.49.63-.942.941-1.275.671-.718 1.31-1.1 1.82-1.406.607-.364.973-.583 1.316-1.237.726-1.387.888-2.06 1.025-2.796C11.128.824 11.852 0 12.83 0c2.173 0 3.523 1.323 3.523 3.452 0 1.94-.442 3.531-.842 4.576l4.99.615c1.406.057 2.563 1.363 2.497 2.903a2.726 2.726 0 01-.702 1.71c.367.488.575 1.1.548 1.754-.04.798-.413 1.5-.982 1.98.218.38.34.819.34 1.287 0 1.454-.998 2.422-2.138 2.712.021.16.03.33.022.512a3.322 3.322 0 01-.037.46c-.08.485-.29.882-.638 1.193a3.012 3.012 0 01-2.092.846zM3.06 20.307c.016 0 .158.058.576.058H5.31c.78 0 1.409.274 2.017.537.255.11.528.232.837.337 1.508.509 3.684.757 6.646.757l2.546.004c.244 0 .476-.101.685-.299a.913.913 0 00.025-.206c.018-.419-.12-.463-.193-.485a1.019 1.019 0 01-.709-.867.998.998 0 01.372-.876c.216-.176.508-.268.794-.236l1.027.042h.002c.317 0 .836-.165.836-.782 0-.435-.4-.652-.771-.67h-.003a1.022 1.022 0 01-.986-1.062 1.031 1.031 0 011.087-.962l.578.028h.001a.732.732 0 00.743-.7.725.725 0 00-.688-.756 1.024 1.024 0 01-.99-1.01l.001-.048c.026-.559.511-.98 1.085-.965h.002a.726.726 0 00.746-.691c.017-.374-.215-.791-.616-.808l-6.506-.795a1.035 1.035 0 01-.804-.561.989.989 0 01.043-.963c.01-.017 1.19-2.008 1.19-4.9 0-.801-.216-1.353-1.227-1.428-.059.135-.119.34-.145.504-.198 1.054-.46 1.93-1.236 3.404-.61 1.162-1.396 1.631-2.09 2.044-.464.276-.905.538-1.38 1.044a6.245 6.245 0 00-.728 1 .804.804 0 01-.04.063 1.57 1.57 0 01-.077.142l-.159.294a.99.99 0 01-.196.267c-.94.918-2.198 1.025-3.063 1.025l-.329-.004c-.493 0-.635.139-.635.619L3 19.864c0 .316.05.426.058.444l.002-.001z"/>
  </symbol>

  <!-- Стрелка вниз в комментах -->
  <symbol id="blue-arrow" viewBox="0 0 12 8">
    <path fill-rule="evenodd" clip-rule="evenodd" d="M1.4 7.40002L6 2.80002L10.6 7.40002L12 6.00002L6 2.43187e-05L0 6.00002L1.4 7.40002Z"/>
  </symbol>


</svg>
