<svg xmlns="http://www.w3.org/2000/svg">

  <!-- Логотип сайта -->
  <symbol id="logo-desktop" viewBox="0 0 80 76" fill="none">
    <path d="M0.9 70C0.833333 70 0.8 69.9667 0.8 69.9L0.84 56.16C0.84 56.1067 0.866667 56.08 0.92 56.08L4.66 56.06C5.39333 56.0467 6.06 56.22 6.66 56.58C7.27333 56.94 7.76 57.4267 8.12 58.04C8.48 58.64 8.66 59.3067 8.66 60.04V65.78C8.66 66.5533 8.47333 67.26 8.1 67.9C7.72667 68.5267 7.22667 69.0267 6.6 69.4C5.97333 69.7733 5.26667 69.9667 4.48 69.98L0.9 70ZM3.24 67.54H4.48C4.97333 67.54 5.38667 67.3667 5.72 67.02C6.06667 66.6733 6.24 66.26 6.24 65.78V60.02C6.24 59.5933 6.08 59.2267 5.76 58.92C5.45333 58.6 5.08667 58.4467 4.66 58.46L3.26 58.48L3.24 67.54ZM10.3136 70C10.2603 70 10.2336 69.9667 10.2336 69.9L10.2736 56.16C10.2736 56.1067 10.3003 56.08 10.3536 56.08H14.3936C15.1136 56.08 15.7736 56.26 16.3736 56.62C16.9869 56.9667 17.4736 57.44 17.8336 58.04C18.1936 58.6267 18.3736 59.2933 18.3736 60.04C18.3736 60.5333 18.3003 60.98 18.1536 61.38C18.0069 61.7667 17.8336 62.1 17.6336 62.38C17.4336 62.6467 17.2536 62.8467 17.0936 62.98C17.8136 63.78 18.1736 64.72 18.1736 65.8L18.1936 69.9C18.1936 69.9667 18.1603 70 18.0936 70H15.8336C15.7803 70 15.7536 69.98 15.7536 69.94V65.8C15.7536 65.32 15.5803 64.9067 15.2336 64.56C14.9003 64.2 14.4869 64.02 13.9936 64.02H12.6736L12.6536 69.9C12.6536 69.9667 12.6269 70 12.5736 70H10.3136ZM12.6736 61.62H14.3936C14.8069 61.62 15.1736 61.4667 15.4936 61.16C15.8136 60.8533 15.9736 60.48 15.9736 60.04C15.9736 59.6133 15.8136 59.2467 15.4936 58.94C15.1869 58.6333 14.8203 58.48 14.3936 58.48H12.6736V61.62ZM19.982 70C19.9154 70 19.882 69.9667 19.882 69.9L19.902 56.16C19.902 56.1067 19.9287 56.08 19.982 56.08H22.222C22.2754 56.08 22.302 56.1067 22.302 56.16L22.322 69.9C22.322 69.9667 22.2954 70 22.242 70H19.982ZM26.3213 70C26.2679 70 26.2346 69.9667 26.2212 69.9L23.4613 56.16C23.4479 56.1067 23.4746 56.08 23.5413 56.08H25.8013C25.8546 56.08 25.8879 56.1067 25.9013 56.16L27.5413 65.32L29.1413 56.16C29.1546 56.1067 29.1879 56.08 29.2413 56.08H31.4813C31.5479 56.08 31.5746 56.1067 31.5613 56.16L28.8413 69.9C28.8279 69.9667 28.7946 70 28.7413 70H26.3213ZM32.8136 70C32.7603 70 32.7336 69.9667 32.7336 69.9L32.7536 56.16C32.7536 56.1067 32.7803 56.08 32.8336 56.08H39.2536C39.3069 56.08 39.3336 56.1133 39.3336 56.18V58.42C39.3336 58.4733 39.3069 58.5 39.2536 58.5H35.1536V61.62H39.2536C39.3069 61.62 39.3336 61.6467 39.3336 61.7L39.3536 63.96C39.3536 64.0133 39.3269 64.04 39.2736 64.04H35.1536V67.54H39.2736C39.3269 67.54 39.3536 67.5733 39.3536 67.64V69.92C39.3536 69.9733 39.3269 70 39.2736 70H32.8136ZM44.1808 70C44.1274 70 44.1008 69.9667 44.1008 69.9L44.1408 56.16C44.1408 56.1067 44.1674 56.08 44.2208 56.08H46.6608C46.7141 56.08 46.7608 56.1067 46.8008 56.16L48.6208 58.8L50.4408 56.16C50.4808 56.1067 50.5274 56.08 50.5808 56.08H53.0408C53.0941 56.08 53.1208 56.1067 53.1208 56.16L53.1608 69.9C53.1608 69.9667 53.1341 70 53.0808 70H50.8208C50.7674 70 50.7408 69.9667 50.7408 69.9L50.7208 59.7L48.6208 62.74L46.5408 59.7L46.5208 69.9C46.5208 69.9667 46.4941 70 46.4408 70H44.1808ZM58.543 70.2C57.823 70.2 57.163 70.02 56.563 69.66C55.9763 69.2867 55.503 68.8 55.143 68.2C54.783 67.5867 54.603 66.9133 54.603 66.18L54.623 59.84C54.623 59.1067 54.7963 58.44 55.143 57.84C55.503 57.24 55.983 56.76 56.583 56.4C57.183 56.04 57.8363 55.86 58.543 55.86C59.263 55.86 59.9163 56.04 60.503 56.4C61.0896 56.76 61.5563 57.24 61.903 57.84C62.263 58.44 62.443 59.1067 62.443 59.84L62.463 66.18C62.463 66.9133 62.283 67.5867 61.923 68.2C61.5763 68.8 61.103 69.2867 60.503 69.66C59.9163 70.02 59.263 70.2 58.543 70.2ZM58.543 67.78C58.943 67.78 59.2896 67.62 59.583 67.3C59.8896 66.9667 60.043 66.5933 60.043 66.18L60.023 59.84C60.023 59.4 59.883 59.0267 59.603 58.72C59.323 58.4133 58.9696 58.26 58.543 58.26C58.1296 58.26 57.7763 58.4133 57.483 58.72C57.1896 59.0133 57.043 59.3867 57.043 59.84V66.18C57.043 66.62 57.1896 67 57.483 67.32C57.7763 67.6267 58.1296 67.78 58.543 67.78ZM65.7297 70C65.6764 70 65.6497 69.9667 65.6497 69.9V58.5H63.0497C62.983 58.5 62.9497 58.4667 62.9497 58.4L62.9697 56.16C62.9697 56.1067 62.9964 56.08 63.0497 56.08H70.6497C70.7164 56.08 70.7497 56.1067 70.7497 56.16V58.4C70.7497 58.4667 70.723 58.5 70.6697 58.5H68.0497L68.0697 69.9C68.0697 69.9667 68.043 70 67.9897 70H65.7297ZM74.9883 70.2C74.2683 70.2 73.6083 70.02 73.0083 69.66C72.4216 69.2867 71.9483 68.8 71.5883 68.2C71.2283 67.5867 71.0483 66.9133 71.0483 66.18L71.0683 59.84C71.0683 59.1067 71.2416 58.44 71.5883 57.84C71.9483 57.24 72.4283 56.76 73.0283 56.4C73.6283 56.04 74.2816 55.86 74.9883 55.86C75.7083 55.86 76.3616 56.04 76.9483 56.4C77.5349 56.76 78.0016 57.24 78.3483 57.84C78.7083 58.44 78.8883 59.1067 78.8883 59.84L78.9083 66.18C78.9083 66.9133 78.7283 67.5867 78.3683 68.2C78.0216 68.8 77.5483 69.2867 76.9483 69.66C76.3616 70.02 75.7083 70.2 74.9883 70.2ZM74.9883 67.78C75.3883 67.78 75.7349 67.62 76.0283 67.3C76.3349 66.9667 76.4883 66.5933 76.4883 66.18L76.4683 59.84C76.4683 59.4 76.3283 59.0267 76.0483 58.72C75.7683 58.4133 75.4149 58.26 74.9883 58.26C74.5749 58.26 74.2216 58.4133 73.9283 58.72C73.6349 59.0133 73.4883 59.3867 73.4883 59.84V66.18C73.4883 66.62 73.6349 67 73.9283 67.32C74.2216 67.6267 74.5749 67.78 74.9883 67.78Z" fill="#2F3035"/>
    <path d="M59.0441 7.95599C58.3406 7.2526 57.2364 7.14888 56.4141 7.70921C53.3162 9.82072 37.7781 20.4384 36.1082 22.1082C33.6866 24.53 33.6866 28.4702 36.1082 30.8919C37.319 32.1027 38.9097 32.7081 40.5001 32.7081C42.0905 32.7081 43.681 32.1027 44.8919 30.8919C46.5618 29.222 57.1794 13.6839 59.291 10.5861C59.8511 9.76389 59.7475 8.65958 59.0441 7.95599ZM41.9639 27.964C41.1568 28.7713 39.8433 28.7713 39.0362 27.964C38.2289 27.1569 38.2288 25.8438 39.0357 25.0366C39.6846 24.3954 44.0961 21.2492 49.5239 17.4763C45.7511 22.9041 42.6049 27.3154 41.9639 27.964Z" fill="#2F3035"/>
    <path d="M23.5473 36.1294L20.9915 37.3762C19.1214 34.0386 18.1406 30.3134 18.1406 26.5C18.1406 23.706 18.6558 21.03 19.5961 18.5621L22.5246 19.9668C22.8134 20.1053 23.1183 20.171 23.4186 20.171C24.1901 20.171 24.9307 19.7377 25.2867 18.9955C25.7811 17.9646 25.3463 16.7279 24.3153 16.2334L21.4239 14.8465C25.0177 8.98547 31.2356 4.89919 38.4298 4.23565V7.34951C38.4298 8.49294 39.3567 9.41982 40.5001 9.41982C41.6435 9.41982 42.5704 8.49294 42.5704 7.34951V4.2341C45.037 4.45863 47.4236 5.08676 49.6893 6.10949C50.7312 6.57997 51.9575 6.11632 52.428 5.07444C52.8985 4.03224 52.435 2.8061 51.3928 2.33562C47.9596 0.78589 44.2948 0 40.5 0C33.4216 0 26.7669 2.75641 21.7616 7.7616C16.7565 12.7669 14 19.4216 14 26.5C14 31.7306 15.5525 36.8178 18.4898 41.2111C18.8854 41.8027 19.5395 42.131 20.2122 42.131C20.518 42.131 20.8277 42.0632 21.1187 41.9212L25.3628 39.8509C26.3905 39.3496 26.8172 38.1102 26.3159 37.0825C25.8145 36.0549 24.5751 35.6283 23.5473 36.1294Z" fill="#2F3035"/>
    <path d="M64.6643 15.6073C64.194 14.5652 62.968 14.1015 61.9255 14.5721C60.8834 15.0426 60.42 16.2688 60.8905 17.3109C62.1971 20.2049 62.8594 23.2966 62.8594 26.5C62.8594 30.3191 61.8754 34.0504 59.9998 37.3917L57.3315 36.1211C56.2994 35.6296 55.0639 36.0678 54.5722 37.1002C54.0806 38.1325 54.519 39.368 55.5514 39.8596L59.899 41.9299C60.185 42.066 60.4882 42.1311 60.788 42.1311C61.4608 42.1311 62.1151 41.8024 62.5102 41.2113C65.4475 36.8179 67.0001 31.7307 67.0001 26.5C67.0001 22.7053 66.2142 19.0404 64.6643 15.6073Z" fill="#2F3035"/>
  </symbol>

  <!-- Маркер местоположения -->
  <symbol id="marker" viewBox="0 0 30 30" fill="none">
    <path d="M14.9939 0C8.36497 0 2.96875 5.39623 2.96875 12.0252C2.96875 12.7799 3.03793 13.5409 3.18259 14.283C3.18888 14.327 3.21403 14.4591 3.26435 14.6855C3.44674 15.4969 3.71718 16.2956 4.06938 17.0566C5.36498 20.1069 8.21403 24.7925 14.4656 29.8113C14.6228 29.9371 14.8115 30 15.0002 30C15.1889 30 15.3776 29.9371 15.5348 29.8113C21.7801 24.7925 24.6354 20.1069 25.931 17.0566C26.2832 16.2956 26.5537 15.5031 26.736 14.6855C26.7864 14.4591 26.8115 14.327 26.8178 14.283C26.9562 13.5409 27.0316 12.7799 27.0316 12.0252C27.0191 5.39623 21.6228 0 14.9939 0ZM25.1323 13.9874C25.1323 14 25.126 14.0126 25.126 14.0252C25.1197 14.0566 25.1008 14.1509 25.0694 14.2956C25.0694 14.3019 25.0694 14.3019 25.0694 14.3082C24.9121 15.0126 24.6794 15.6981 24.3713 16.3585C24.365 16.3648 24.365 16.3774 24.3587 16.3836C23.1826 19.1698 20.604 23.4214 14.9939 28.0566C9.38384 23.4214 6.80523 19.1698 5.62913 16.3836C5.62284 16.3774 5.62284 16.3648 5.61655 16.3585C5.31466 15.7044 5.08196 15.0126 4.91843 14.3082C4.91843 14.3019 4.91843 14.3019 4.91843 14.2956C4.8807 14.1509 4.86812 14.0566 4.86183 14.0252C4.86183 14.0126 4.85554 14 4.85554 13.9811C4.72976 13.3333 4.66686 12.6792 4.66686 12.0189C4.66686 6.32704 9.30208 1.69182 14.9939 1.69182C20.6857 1.69182 25.3209 6.32704 25.3209 12.0189C25.3209 12.6855 25.2581 13.3459 25.1323 13.9874Z" fill="black"/>
    <path d="M14.9941 4.52197C10.7866 4.52197 7.35889 7.94965 7.35889 12.1572C7.35889 16.3647 10.7866 19.7924 14.9941 19.7924C19.2016 19.7924 22.6293 16.3647 22.6293 12.1572C22.6293 7.94965 19.2016 4.52197 14.9941 4.52197ZM14.9941 18.0943C11.7174 18.0943 9.057 15.4276 9.057 12.1572C9.057 8.88675 11.7237 6.22009 14.9941 6.22009C18.2645 6.22009 20.9312 8.88675 20.9312 12.1572C20.9312 15.4276 18.2708 18.0943 14.9941 18.0943Z" fill="black"/>
  </symbol>

  <!-- Иконка избранного -->
  <symbol id="favourites" viewBox="0 0 24 22">
    <path d="M12 8.22892C12.234 7.10892 13.547 1.99992 17.382 1.99992C19.602 1.99992 22 3.55092 22 7.00292C22 10.9099 18.373 15.4729 12 19.6319C5.627 15.4729 2 10.9099 2 7.00292C2 3.51892 4.369 1.99792 6.577 1.99792C10.5 1.99792 11.722 7.12392 12 8.22892ZM0 7.00292C0 11.0709 3.06 16.4839 12 21.9999C20.94 16.4839 24 11.0709 24 7.00292C24 -0.959077 14.352 -2.02508 12 3.26592C9.662 -1.99608 0 -1.00408 0 7.00292Z"/>
  </symbol>

  <!-- Иконка профиля -->
  <symbol id="profile" viewBox="0 0 24 25" fill="none">
    <path d="M20.8224 18.899C17.3834 18.1071 14.1825 17.413 15.7325 14.493C20.4524 5.60539 16.9834 0.852417 12.0005 0.852417C6.91847 0.852417 3.53648 5.78789 8.26847 14.493C9.86547 17.43 6.54347 18.1241 3.17848 18.899C0.105486 19.607 -0.00951396 21.1288 0.000486017 23.7896L0.00448601 24.7868H23.9944L23.9984 23.8205C24.0104 21.1398 23.9064 19.61 20.8224 18.899Z" fill="#2F3035"/>
  </symbol>

  <!-- Иконка корзины -->
  <symbol id="basket" viewBox="0 0 30 24">
    <path d="M29.999 0.846924L29.0703 3.34009H26.659L22.3165 18.2991H5.76777L-0.000976562 4.58667H21.014L20.309 7.07984H3.75902L7.43027 15.8059H20.4653L24.7553 0.846924H29.999ZM10.624 19.5457C9.58902 19.5457 8.74902 20.3834 8.74902 21.4156C8.74902 22.449 9.58902 23.2854 10.624 23.2854C11.659 23.2854 12.499 22.449 12.499 21.4156C12.499 20.3834 11.659 19.5457 10.624 19.5457ZM19.249 10.8196L16.874 19.5457C15.839 19.5457 14.999 20.3821 14.999 21.4156C14.999 22.449 15.839 23.2854 16.874 23.2854C17.909 23.2854 18.749 22.449 18.749 21.4156C18.749 20.3834 17.909 19.5457 16.874 19.5457L19.249 10.8196Z"/>
  </symbol>

  <!-- Иконка инстаграма -->
  <symbol id="instagram" viewBox="0 0 30 30" fill="none">
    <g clip-path="url(#clip0_58_1)">
      <path d="M15.0046 7.29749C10.7509 7.29749 7.30713 10.745 7.30713 14.995C7.30713 19.2487 10.7546 22.6925 15.0046 22.6925C19.2584 22.6925 22.7021 19.245 22.7021 14.995C22.7021 10.7412 19.2546 7.29749 15.0046 7.29749ZM15.0046 19.9912C12.2434 19.9912 10.0084 17.755 10.0084 14.995C10.0084 12.235 12.2446 9.99874 15.0046 9.99874C17.7646 9.99874 20.0009 12.235 20.0009 14.995C20.0021 17.755 17.7659 19.9912 15.0046 19.9912Z" fill="#2F3035"/>
      <path d="M21.1848 0.095454C18.4248 -0.033296 11.5885 -0.027046 8.82605 0.095454C6.39855 0.209204 4.2573 0.795454 2.53105 2.5217C-0.353954 5.4067 0.0147958 9.29421 0.0147958 14.9955C0.0147958 20.8305 -0.310204 24.628 2.53105 27.4692C5.4273 30.3642 9.37104 29.9855 15.0048 29.9855C20.7848 29.9855 22.7798 29.9892 24.8235 29.198C27.6023 28.1192 29.6998 25.6355 29.9048 21.1742C30.0348 18.413 30.0273 11.578 29.9048 8.81546C29.6573 3.5492 26.831 0.355454 21.1848 0.095454ZM25.5535 25.5605C23.6623 27.4517 21.0385 27.283 14.9685 27.283C8.71854 27.283 6.2123 27.3755 4.38355 25.5417C2.2773 23.4455 2.65855 20.0792 2.65855 14.9755C2.65855 8.0692 1.9498 3.09545 8.88105 2.74045C10.4735 2.6842 10.9423 2.66545 14.951 2.66545L15.0073 2.70295C21.6685 2.70295 26.8948 2.00545 27.2085 8.93545C27.2798 10.5167 27.296 10.9917 27.296 14.9942C27.2948 21.1717 27.4123 23.693 25.5535 25.5605Z" fill="#2F3035"/>
      <path d="M23.0077 8.79245C24.0012 8.79245 24.8065 7.98712 24.8065 6.9937C24.8065 6.00027 24.0012 5.19495 23.0077 5.19495C22.0143 5.19495 21.209 6.00027 21.209 6.9937C21.209 7.98712 22.0143 8.79245 23.0077 8.79245Z" fill="#2F3035"/>
    </g>
    <defs>
      <clipPath id="clip0_58_1">
        <rect width="30" height="30" fill="white"/>
      </clipPath>
    </defs>
  </symbol>

  <!-- Иконка вконтакте -->
  <symbol id="vkontakte" viewBox="0 0 30 30" fill="none">
    <path d="M24.8938 16.285C24.4088 15.6725 24.5475 15.4 24.8938 14.8525C24.9 14.8462 28.9037 9.31375 29.3162 7.4375L29.3188 7.43625C29.5238 6.7525 29.3188 6.25 28.3275 6.25H25.0475C24.2125 6.25 23.8275 6.68125 23.6213 7.16375C23.6213 7.16375 21.9513 11.1613 19.5887 13.7525C18.8263 14.5012 18.4738 14.7413 18.0575 14.7413C17.8525 14.7413 17.5338 14.5013 17.5338 13.8175V7.43625C17.5338 6.61625 17.3 6.25 16.6087 6.25H11.4513C10.9275 6.25 10.6163 6.6325 10.6163 6.98875C10.6163 7.76625 11.7975 7.945 11.92 10.1325V14.8787C11.92 15.9187 11.7312 16.11 11.3125 16.11C10.1975 16.11 7.49125 12.0962 5.8875 7.5025C5.56375 6.61125 5.2475 6.25125 4.40625 6.25125H1.125C0.18875 6.25125 0 6.6825 0 7.165C0 8.0175 1.115 12.2562 5.185 17.8562C7.8975 21.6788 11.7175 23.75 15.1925 23.75C17.2812 23.75 17.5363 23.29 17.5363 22.4988C17.5363 18.8463 17.3475 18.5012 18.3937 18.5012C18.8787 18.5012 19.7137 18.7413 21.6637 20.585C23.8925 22.7712 24.2588 23.75 25.5063 23.75H28.7862C29.7212 23.75 30.195 23.29 29.9225 22.3825C29.2987 20.4738 25.0838 16.5475 24.8938 16.285Z" fill="#2F3035"/>
  </symbol>

  <!-- Иконка фейсбука -->
  <symbol id="facebook" viewBox="0 0 30 30" fill="none">
    <g clip-path="url(#clip0_58_7)">
      <path d="M17.4188 29.8048C17.2938 29.8252 17.1684 29.8439 17.0425 29.8611C17.1684 29.8439 17.2938 29.8252 17.4188 29.8048Z" fill="#2F3035"/>
      <path d="M17.7188 29.7535C17.659 29.7645 17.5993 29.7746 17.5396 29.7849C17.5993 29.7746 17.659 29.7645 17.7188 29.7535Z" fill="#2F3035"/>
      <path d="M16.7072 29.9027C16.5609 29.9192 16.4137 29.9338 16.2661 29.9462C16.4137 29.9338 16.5609 29.9192 16.7072 29.9027Z" fill="#2F3035"/>
      <path d="M16.9952 29.8674C16.9249 29.8768 16.8542 29.8855 16.7837 29.8938C16.8542 29.8855 16.9249 29.8768 16.9952 29.8674Z" fill="#2F3035"/>
      <path d="M18.1271 29.6725C18.0745 29.6837 18.0216 29.6949 17.9688 29.7057C18.0216 29.6949 18.0745 29.6837 18.1271 29.6725Z" fill="#2F3035"/>
      <path d="M19.1404 29.4207C19.0978 29.4328 19.0553 29.4442 19.0127 29.4561C19.0553 29.4442 19.0978 29.4328 19.1404 29.4207Z" fill="#2F3035"/>
      <path d="M18.834 29.5045C18.7878 29.5166 18.7413 29.529 18.6948 29.5407C18.7413 29.529 18.7878 29.5169 18.834 29.5045Z" fill="#2F3035"/>
      <path d="M18.433 29.6047C18.384 29.6162 18.3346 29.6269 18.2852 29.6379C18.3346 29.6269 18.384 29.6162 18.433 29.6047Z" fill="#2F3035"/>
      <path d="M16.2615 29.9467C16.1826 29.9533 16.1036 29.9592 16.0244 29.9645C16.1036 29.9592 16.1826 29.9533 16.2615 29.9467Z" fill="#2F3035"/>
      <path d="M30 15C30 6.717 23.283 0 15 0C6.717 0 0 6.717 0 15C0 23.283 6.717 30 15 30C15.0881 30 15.1758 29.9982 15.2637 29.9966V18.3197H12.041V14.564H15.2637V11.8002C15.2637 8.59497 17.2204 6.85043 20.0796 6.85043C21.4487 6.85043 22.6257 6.95251 22.9688 6.99806V10.348H20.9972C19.4417 10.348 19.1405 11.0873 19.1405 12.1719V14.564H22.8598L22.375 18.3197H19.1405V29.4205C25.4102 27.6231 30 21.8468 30 15Z" fill="#2F3035"/>
      <path d="M15.9911 29.9666C15.835 29.9766 15.6782 29.9846 15.521 29.9899C15.6782 29.9846 15.835 29.9766 15.9911 29.9666Z" fill="#2F3035"/>
      <path d="M15.5127 29.9904C15.4298 29.9931 15.3468 29.9952 15.2637 29.9965C15.3468 29.9952 15.4298 29.9931 15.5127 29.9904Z" fill="#2F3035"/>
    </g>
    <defs>
      <clipPath id="clip0_58_7">
        <rect width="30" height="30" fill="white"/>
      </clipPath>
    </defs>
  </symbol>

  <!-- Иконка ютубa -->
  <symbol id="youtube" viewBox="0 0 30 30" fill="none">
    <g clip-path="url(#clip0_58_20)">
      <path d="M13.1318 17.8102L18.0111 15L13.1318 12.1898V17.8102Z" fill="#2F3035"/>
      <path d="M15 0C6.717 0 0 6.717 0 15C0 23.283 6.717 30 15 30C23.283 30 30 23.283 30 15C30 6.717 23.283 0 15 0ZM24.3727 15.0153C24.3727 15.0153 24.3727 18.0574 23.9868 19.5243C23.7705 20.3272 23.1374 20.9603 22.3345 21.1764C20.8676 21.5625 15 21.5625 15 21.5625C15 21.5625 9.14772 21.5625 7.66548 21.161C6.86256 20.945 6.22948 20.3117 6.01318 19.5087C5.62706 18.0574 5.62706 15 5.62706 15C5.62706 15 5.62706 11.9582 6.01318 10.4913C6.22925 9.68834 6.8779 9.03969 7.66548 8.82362C9.13239 8.4375 15 8.4375 15 8.4375C15 8.4375 20.8676 8.4375 22.3345 8.83896C23.1374 9.05502 23.7705 9.68834 23.9868 10.4913C24.3883 11.9582 24.3727 15.0153 24.3727 15.0153Z" fill="#2F3035"/>
    </g>
    <defs>
      <clipPath id="clip0_58_20">
        <rect width="30" height="30" fill="white"/>
      </clipPath>
    </defs>
  </symbol>


  <!-- Иконка Instagram в подвале десктопная версия -->
  <symbol id="instagram-icon" viewBox="0 0 21 20">
    <path d="M10.7357 0C13.3839 0 13.7144 0.00999994 14.7534 0.0599999C15.7915 0.11 16.4982 0.277 17.12 0.525C17.7633 0.779 18.3053 1.123 18.8472 1.678C19.3428 2.1779 19.7264 2.78259 19.9711 3.45C20.2118 4.087 20.3756 4.813 20.4243 5.878C20.4701 6.944 20.4828 7.283 20.4828 10C20.4828 12.717 20.473 13.056 20.4243 14.122C20.3756 15.187 20.2118 15.912 19.9711 16.55C19.7271 17.2178 19.3435 17.8226 18.8472 18.322C18.3598 18.8303 17.7705 19.2238 17.12 19.475C16.4991 19.722 15.7915 19.89 14.7534 19.94C13.7144 19.987 13.3839 20 10.7357 20C8.08736 20 7.75693 19.99 6.71789 19.94C5.67982 19.89 4.97315 19.722 4.35128 19.475C3.70049 19.2245 3.11099 18.8309 2.62409 18.322C2.12836 17.8222 1.74484 17.2175 1.50025 16.55C1.25852 15.913 1.09574 15.187 1.04701 14.122C1.0012 13.056 0.988525 12.717 0.988525 10C0.988525 7.283 0.998272 6.944 1.04701 5.878C1.09574 4.812 1.25852 4.088 1.50025 3.45C1.74416 2.78218 2.12777 2.17732 2.62409 1.678C3.11113 1.16923 3.70059 0.775729 4.35128 0.525C4.97315 0.277 5.67884 0.11 6.71789 0.0599999C7.75693 0.0129999 8.08736 0 10.7357 0ZM10.7357 5C9.4431 5 8.20349 5.52678 7.28952 6.46447C6.37555 7.40215 5.86209 8.67392 5.86209 10C5.86209 11.3261 6.37555 12.5979 7.28952 13.5355C8.20349 14.4732 9.4431 15 10.7357 15C12.0282 15 13.2678 14.4732 14.1818 13.5355C15.0958 12.5979 15.6092 11.3261 15.6092 10C15.6092 8.67392 15.0958 7.40215 14.1818 6.46447C13.2678 5.52678 12.0282 5 10.7357 5ZM17.0713 4.75C17.0713 4.41848 16.9429 4.10054 16.7144 3.86612C16.4859 3.6317 16.176 3.5 15.8529 3.5C15.5298 3.5 15.2199 3.6317 14.9914 3.86612C14.7629 4.10054 14.6345 4.41848 14.6345 4.75C14.6345 5.08152 14.7629 5.39946 14.9914 5.63388C15.2199 5.8683 15.5298 6 15.8529 6C16.176 6 16.4859 5.8683 16.7144 5.63388C16.9429 5.39946 17.0713 5.08152 17.0713 4.75ZM10.7357 7C11.5112 7 12.2549 7.31607 12.8033 7.87868C13.3517 8.44129 13.6598 9.20435 13.6598 10C13.6598 10.7956 13.3517 11.5587 12.8033 12.1213C12.2549 12.6839 11.5112 13 10.7357 13C9.96012 13 9.21636 12.6839 8.66797 12.1213C8.11959 11.5587 7.81151 10.7956 7.81151 10C7.81151 9.20435 8.11959 8.44129 8.66797 7.87868C9.21636 7.31607 9.96012 7 10.7357 7Z"/>
  </symbol>

  <!-- Иконка Twitter в подвале десктопная версия-->
  <symbol id="twitter-icon" viewBox="0 0 20 17">
    <path d="M19.999 2.42905C19.2689 2.76016 18.4947 2.97761 17.7019 3.07421C18.5375 2.56184 19.1629 1.75547 19.4616 0.805372C18.6774 1.28385 17.8176 1.61917 16.9215 1.80056C16.3196 1.14028 15.5217 0.702385 14.652 0.554941C13.7823 0.407498 12.8895 0.558771 12.1123 0.985244C11.3351 1.41172 10.7171 2.0895 10.3543 2.91321C9.99163 3.73692 9.90451 4.66042 10.1065 5.54013C8.51623 5.45841 6.96046 5.03471 5.54024 4.29654C4.12002 3.55838 2.86709 2.52225 1.8628 1.25541C1.50731 1.8814 1.32051 2.59302 1.3215 3.31737C1.3215 4.73907 2.02729 5.99507 3.10032 6.73043C2.46531 6.70994 1.84428 6.53412 1.28899 6.21764V6.26863C1.28918 7.21548 1.60876 8.13313 2.19355 8.86599C2.77834 9.59884 3.59234 10.1018 4.49754 10.2896C3.90806 10.4534 3.28997 10.4775 2.69004 10.3602C2.94526 11.1752 3.4427 11.888 4.1127 12.3987C4.78271 12.9095 5.59173 13.1926 6.4265 13.2085C5.59685 13.8765 4.6469 14.3703 3.63098 14.6617C2.61505 14.9531 1.55306 15.0364 0.505737 14.9067C2.33399 16.1121 4.46225 16.7521 6.63594 16.75C13.9931 16.75 18.0165 10.5014 18.0165 5.08224C18.0165 4.90575 18.0117 4.72731 18.0041 4.55278C18.7872 3.9725 19.4631 3.25366 20 2.43003L19.999 2.42905Z"/>
  </symbol>

  <!-- Иконка большого корабля в блоке преимуществ -->
  <symbol id="ship-icon" viewBox="0 0 27 32">
    <path d="M4.40549 16.3962L13.2165 9.93576C13.4162 9.8063 13.6711 9.8063 13.8708 9.93576L22.7254 16.3962V8.68818C22.7739 7.6312 21.9743 6.7343 20.9396 6.68484C20.9242 6.68407 20.9089 6.68356 20.8934 6.68322H6.23749C5.20189 6.70667 4.38094 7.58319 4.4039 8.6411C4.40423 8.6568 4.40473 8.67249 4.40549 8.68818V16.3962Z"/>
    <path d="M15.7464 0H11.3845V5.34662H15.7464V0Z"/>
    <path d="M24.2956 30.1638L27 21.03L23.2052 18.3122L22.9434 18.1785L14.0016 11.8072V30.6094H13.5217L12.6929 30.5649V11.8072L0 21.03L2.79163 30.1193L4.4039 31.9904C4.4039 31.9904 5.7624 31.9904 7.15817 31.9904C7.15817 31.9904 12.2467 31.997 13.5218 31.9904C14.8198 32.012 17.1251 31.9904 17.1251 31.9904H22.8127L24.2956 30.1638Z"/>
  </symbol>

  <!-- Иконка двойной галочки в блоке преимуществ -->
  <symbol id="double-check-mark-icon" viewBox="0 0 38 21">
    <path d="M28.7534 2.21506L26.4398 0L16.0732 9.93254L18.3868 12.1476L28.7534 2.21506ZM35.6945 0L18.3787 16.5699L11.5602 10.0421L9.24656 12.2572L18.3787 21L38 2.21506L35.6945 0ZM0 12.2572L9.1321 21L11.4458 18.7849L2.31368 10.0421L0 12.2572Z"/>
  </symbol>

  <!-- Иконка катера в блоке преимуществ -->
  <symbol id="speedboat-icon" viewBox="0 0 42 15">
    <path d="M39.555 12.056L1.57287 8.06841C1.28101 8.03777 1.0843 8.33255 1.23548 8.56735C3.66312 12.3403 9.41009 15 16.1 15H38.7584C38.9124 15 39.0475 14.9068 39.093 14.7698L39.8504 12.476C39.9148 12.281 39.7727 12.0788 39.555 12.056Z"/>
    <path d="M41.8896 5.51766C41.7782 5.35594 41.597 5.24833 41.3933 5.22287L30.8932 3.91844C30.5145 3.87213 30.1582 4.1219 30.1065 4.47868C30.0547 4.83545 30.3248 5.16418 30.7078 5.21172L31.8964 5.35915C32.07 5.3807 32.2002 5.51896 32.2002 5.68199V6.69033C32.2002 6.884 32.0195 7.03534 31.8131 7.01447L29.0131 6.73466C28.8353 6.71769 28.7002 6.57744 28.7002 6.41113V3.55647C28.7002 3.49189 28.7205 3.42929 28.759 3.37579L29.9826 1.66575C30.1226 1.47009 30.1387 1.21962 30.0253 1.01028C29.9112 0.800253 29.6852 0.663291 29.4332 0.652208L14.7331 3.06688e-05C14.4972 -0.00195651 14.2683 0.0926639 14.1304 0.272657C14.1304 0.272657 11.3332 3.93541 10.72 4.74152C10.6465 4.83805 10.5233 4.88956 10.3973 4.87649L0.774214 3.91653C0.575451 3.89697 0.379396 3.95635 0.231739 4.07956C0.0847386 4.20353 0 4.37962 0 4.56481C0 5.19291 0.0875277 5.80856 0.252739 6.40601C0.289161 6.53778 0.412372 6.63362 0.55724 6.64929L40.1052 10.8012C40.2725 10.8188 40.4293 10.7229 40.479 10.5729L41.9694 6.06093C42.0295 5.87773 42.0001 5.67878 41.8896 5.51766ZM20.2007 1.90513L19.6547 5.46745C19.6281 5.64026 19.4635 5.76354 19.2767 5.74596C17.911 5.61748 12.7799 5.11465 12.7799 5.11465C12.5139 5.0879 12.3768 4.80419 12.5321 4.60073L14.9366 1.46428C15.0059 1.37424 15.1193 1.32273 15.2383 1.328L19.871 1.53345C20.0768 1.54254 20.23 1.71466 20.2007 1.90513ZM27.7894 2.3806L27.3589 2.98065C27.3204 3.03415 27.3001 3.09736 27.3001 3.16194V6.20187C27.3001 6.39554 27.1195 6.54687 26.913 6.52601L21.3577 5.97166C21.161 5.95209 21.0203 5.78379 21.0483 5.6012L21.6146 1.9078C21.6398 1.74149 21.7973 1.62019 21.9779 1.62799L27.5149 1.87386C27.7866 1.88556 27.9406 2.16927 27.7894 2.3806ZM36.4001 7.1097C36.4001 7.30337 36.2195 7.45471 36.013 7.43384C36.013 7.43384 34.5598 7.28121 33.9088 7.20952C33.7324 7.19064 33.6001 7.051 33.6001 6.88599V5.94292C33.6001 5.74596 33.7863 5.59333 33.9963 5.61939L36.0963 5.88025C36.2699 5.90241 36.4001 6.04068 36.4001 6.20378V7.1097ZM40.2662 6.78228L40.0065 7.56752C39.9576 7.71625 39.8014 7.81209 39.6348 7.79581L38.1123 7.64387C37.9352 7.62629 37.8001 7.48604 37.8001 7.31973V6.46532C37.8001 6.26836 37.9863 6.11573 38.1963 6.14179L39.9778 6.3629C40.192 6.38966 40.3299 6.58929 40.2662 6.78228Z"/>
  </symbol>



</svg>
