<svg width="298" height="354" fill="none" xmlns="http://www.w3.org/2000/svg"><g clip-path="url(#a)"><path d="M46.99 50.87C17.783 69.231-2.903 102.213.332 133.302c3.307 31.017 30.544 60.204 39.9 96.993 9.355 36.79.914 81.304 16.54 103.949 15.548 22.721 55.332 23.704 87.748 13.715 32.51-9.916 57.704-30.804 85.71-49.513 28.007-18.642 58.776-35.169 66.012-59.013 7.236-23.772-9.079-54.878-26.815-78.067-17.664-23.282-36.873-38.614-56.716-60.063-19.843-21.45-40.393-48.952-69.527-60.834-29.203-11.89-66.995-8.023-96.194 10.401Z" fill="#1C4759" fill-opacity=".15"/><path d="m127.478 255.577 6.172-109.968m-6.172 109.968 74.486-98.695m-74.486 98.695 79.168-172.29" stroke="#FED385" stroke-width="5" stroke-miterlimit="10" stroke-linecap="round"/><path d="M255.149 66.437c8.117-22.3.601-45.502-16.787-51.824-17.388-6.322-38.063 6.631-46.18 28.931-8.116 22.3-.6 45.502 16.788 51.824 17.387 6.322 38.063-6.63 46.179-28.93Z" fill="#FD8369"/><path d="M171.964 114.752c1.652-23.672-11.971-43.905-30.429-45.192-18.458-1.287-34.76 16.86-36.412 40.532-1.652 23.672 11.972 43.906 30.429 45.192 18.458 1.287 34.76-16.86 36.412-40.532Z" fill="#D37C59"/><path d="M259.829 133.833c11.521-23.661 4.668-50.718-15.307-60.433-19.974-9.716-45.506 1.59-57.027 25.25-11.521 23.661-4.668 50.718 15.307 60.434 19.974 9.715 45.507-1.59 57.027-25.251Zm-65.207-87.882C198.028 23.57 185.756 3.14 167.211.32c-18.546-2.82-36.341 13.038-39.748 35.42-3.407 22.382 8.865 42.812 27.411 45.632 18.545 2.82 36.341-13.039 39.748-35.42Z" fill="#74D5DE"/><path d="M204.978 104.962c6.378-21.008-1.096-41.872-16.694-46.603-15.597-4.73-33.412 8.465-39.79 29.473-6.378 21.007 1.096 41.872 16.694 46.602 15.597 4.731 33.412-8.464 39.79-29.472Z" fill="#FED385"/><path d="m135.488 153.998 3.831 8.993a1.643 1.643 0 0 1-.2 1.621 1.647 1.647 0 0 1-1.503.642l-9.7-1.195a1.634 1.634 0 0 1-1.107-2.608l5.887-7.797a1.626 1.626 0 0 1 1.494-.624 1.638 1.638 0 0 1 1.298.968Z" fill="#D37C59"/><path d="M127.478 255.577 113.432 97.75m14.046 157.827 37.456-125.07" stroke="#FED385" stroke-width="5" stroke-miterlimit="10" stroke-linecap="round"/><path d="m166.322 130.622 2.23 9.516a1.626 1.626 0 0 1-.477 1.563 1.63 1.63 0 0 1-1.592.369l-9.364-2.838a1.637 1.637 0 0 1-1.09-2.038c.084-.275.238-.522.448-.718l7.133-6.675a1.63 1.63 0 0 1 1.593-.373 1.634 1.634 0 0 1 1.119 1.194Z" fill="#FED385"/><path d="m204.48 155.228-.681 9.741a1.64 1.64 0 0 1-1.751 1.524 1.65 1.65 0 0 1-.803-.281l-8.087-5.463a1.628 1.628 0 0 1-.717-1.47 1.63 1.63 0 0 1 .917-1.354l8.781-4.28a1.633 1.633 0 0 1 2.341 1.583Z" fill="#74D5DE"/><path d="M113.848 102.494c22.143-1.78 38.381-24.487 36.27-50.716-2.111-26.23-21.773-46.049-43.916-44.268-22.143 1.78-38.381 24.487-36.27 50.716 2.111 26.23 21.773 46.049 43.916 44.268Z" fill="#FD8369"/><path d="m114.606 98.784 5.534 8.04a1.65 1.65 0 0 1 .125 1.624 1.64 1.64 0 0 1-1.338.929l-9.726.804a1.636 1.636 0 0 1-1.476-.703 1.633 1.633 0 0 1-.133-1.628l4.192-8.823a1.642 1.642 0 0 1 1.341-.936 1.637 1.637 0 0 1 1.481.693Z" fill="#FD8369"/><path d="m88.208 333.938 93.209 18.513 16.593-83.45-93.209-18.513-16.593 83.45Z" fill="#DE8E68"/><path d="m108.562 279.421 93.206 18.514-3.741-28.936-93.21-18.514 3.745 28.936Zm-73.711 43.91 53.366 10.6 16.593-83.45-53.366-10.599-16.593 83.449Z" fill="#D37C59"/><path d="m90.55 275.84-53.264-10.58 14.271-25.359 53.26 10.584L90.55 275.84Z" fill="#DE8E68"/><path d="m123.997 341.045 21.633 4.297 4.895-24.618-21.634-4.297-4.894 24.618Z" fill="#D37C59"/><path d="m100.635 301.642 32.58 6.471 3.573-17.971-32.579-6.471-3.574 17.971Z" fill="#FED385"/><path d="m123.422 303.437 7.365 1.463 2.596-13.056-7.365-1.462-2.596 13.055Zm-17.874-14.463 18.402 3.655.494-2.487-18.402-3.655-.494 2.487Zm-.852 4.255 18.403 3.655.494-2.487-18.402-3.655-.495 2.487Z" fill="#FD8369"/></g><defs><clipPath id="a"><path fill="#fff" d="M0 0h298v354H0z"/></clipPath></defs></svg>