<svg width="298" height="354" viewBox="0 0 298 354" fill="none" xmlns="http://www.w3.org/2000/svg">
<g clip-path="url(#clip0)">
<path d="M46.9902 50.8704C17.7831 69.2311 -2.90279 102.213 0.332034 133.302C3.63922 164.319 30.8756 193.506 40.2311 230.295C49.5865 267.085 41.1462 311.599 56.7713 334.244C72.3197 356.965 112.104 357.948 144.52 347.959C177.03 338.043 202.224 317.155 230.23 298.446C258.237 279.804 289.006 263.277 296.242 239.433C303.478 215.661 287.163 184.555 269.427 161.366C251.763 138.084 232.554 122.752 212.711 101.303C192.868 79.8536 172.318 52.3508 143.184 40.4692C113.981 28.579 76.1887 32.446 46.9902 50.8704Z" fill="#1C4759" fill-opacity="0.15"/>
<path d="M127.478 255.577L133.65 145.609" stroke="#FED385" stroke-width="5" stroke-miterlimit="10" stroke-linecap="round"/>
<path d="M127.478 255.577L201.964 156.882" stroke="#FED385" stroke-width="5" stroke-miterlimit="10" stroke-linecap="round"/>
<path d="M127.478 255.577L206.646 83.2866" stroke="#FED385" stroke-width="5" stroke-miterlimit="10" stroke-linecap="round"/>
<path d="M255.149 66.4374C263.266 44.1374 255.75 20.9348 238.362 14.613C220.974 8.29112 200.299 21.244 192.182 43.544C184.066 65.844 191.582 89.0465 208.97 95.3684C226.357 101.69 247.033 88.7374 255.149 66.4374Z" fill="#FD8369"/>
<path d="M171.964 114.752C173.616 91.0799 159.993 70.8467 141.535 69.5599C123.077 68.2732 106.775 86.4201 105.123 110.092C103.471 133.764 117.095 153.998 135.552 155.284C154.01 156.571 170.312 138.424 171.964 114.752Z" fill="#D37C59"/>
<path d="M259.829 133.833C271.35 110.172 264.497 83.1151 244.522 73.3996C224.548 63.6841 199.016 74.9891 187.495 98.6501C175.974 122.311 182.827 149.368 202.802 159.084C222.776 168.799 248.309 157.494 259.829 133.833Z" fill="#74D5DE"/>
<path d="M194.622 45.9514C198.028 23.5694 185.756 3.13937 167.211 0.319588C148.665 -2.50019 130.87 13.3581 127.463 35.7401C124.056 58.1221 136.328 78.5521 154.874 81.3719C173.419 84.1917 191.215 68.3334 194.622 45.9514Z" fill="#74D5DE"/>
<path d="M204.978 104.962C211.356 83.9545 203.882 63.0897 188.284 58.3593C172.687 53.6288 154.872 66.8241 148.494 87.8316C142.116 108.839 149.59 129.704 165.188 134.434C180.785 139.165 198.6 125.97 204.978 104.962Z" fill="#FED385"/>
<path d="M135.488 153.998L139.319 162.991C139.43 163.255 139.47 163.544 139.435 163.828C139.4 164.113 139.291 164.383 139.119 164.612C138.946 164.841 138.717 165.021 138.453 165.134C138.19 165.247 137.901 165.288 137.616 165.254L127.916 164.059C127.631 164.025 127.359 163.915 127.13 163.743C126.9 163.57 126.72 163.34 126.608 163.075C126.496 162.811 126.455 162.521 126.49 162.236C126.526 161.951 126.636 161.68 126.809 161.451L132.696 153.654C132.869 153.429 133.098 153.253 133.36 153.144C133.622 153.035 133.908 152.995 134.19 153.03C134.472 153.065 134.74 153.172 134.968 153.342C135.195 153.512 135.374 153.738 135.488 153.998V153.998Z" fill="#D37C59"/>
<path d="M127.478 255.577L113.432 97.7505" stroke="#FED385" stroke-width="5" stroke-miterlimit="10" stroke-linecap="round"/>
<path d="M127.478 255.577L164.934 130.507" stroke="#FED385" stroke-width="5" stroke-miterlimit="10" stroke-linecap="round"/>
<path d="M166.322 130.622L168.552 140.138C168.617 140.418 168.607 140.709 168.523 140.983C168.439 141.258 168.285 141.505 168.075 141.701C167.866 141.896 167.608 142.034 167.329 142.098C167.049 142.163 166.758 142.153 166.483 142.07L157.119 139.232C156.845 139.149 156.597 138.995 156.4 138.786C156.204 138.576 156.066 138.319 156.001 138.039C155.936 137.76 155.946 137.468 156.029 137.194C156.113 136.919 156.267 136.672 156.477 136.476L163.61 129.801C163.82 129.604 164.077 129.466 164.357 129.401C164.636 129.335 164.928 129.345 165.203 129.428C165.478 129.511 165.726 129.665 165.923 129.875C166.119 130.085 166.257 130.342 166.322 130.622V130.622Z" fill="#FED385"/>
<path d="M204.48 155.228L203.799 164.969C203.78 165.257 203.685 165.535 203.525 165.774C203.364 166.013 203.142 166.206 202.883 166.332C202.624 166.458 202.335 166.514 202.048 166.493C201.76 166.471 201.483 166.374 201.245 166.212L193.158 160.749C192.92 160.589 192.728 160.369 192.602 160.11C192.476 159.852 192.42 159.566 192.441 159.279C192.461 158.993 192.556 158.717 192.717 158.479C192.878 158.241 193.099 158.05 193.358 157.925L202.139 153.645C202.396 153.521 202.682 153.466 202.968 153.487C203.253 153.508 203.528 153.603 203.765 153.763C204.002 153.923 204.192 154.143 204.318 154.4C204.443 154.657 204.499 154.942 204.48 155.228V155.228Z" fill="#74D5DE"/>
<path d="M113.848 102.494C135.991 100.714 152.229 78.0073 150.118 51.778C148.007 25.5487 128.345 5.72909 106.202 7.50971C84.0591 9.29032 67.8206 31.9968 69.9321 58.2261C72.0435 84.4554 91.7055 104.275 113.848 102.494Z" fill="#FD8369"/>
<path d="M114.606 98.7843L120.14 106.824C120.3 107.061 120.396 107.335 120.418 107.62C120.44 107.904 120.387 108.19 120.265 108.448C120.142 108.706 119.954 108.928 119.719 109.09C119.485 109.253 119.211 109.352 118.927 109.377L109.201 110.181C108.915 110.203 108.628 110.15 108.369 110.026C108.11 109.903 107.888 109.714 107.725 109.478C107.562 109.242 107.464 108.967 107.441 108.682C107.418 108.396 107.47 108.109 107.592 107.85L111.784 99.0267C111.906 98.7667 112.094 98.5433 112.329 98.3789C112.565 98.2145 112.839 98.1151 113.125 98.0905C113.411 98.0659 113.699 98.1171 113.959 98.2389C114.219 98.3607 114.442 98.5488 114.606 98.7843V98.7843Z" fill="#FD8369"/>
<path d="M88.2082 333.938L181.417 352.451L198.01 269.001L104.801 250.488L88.2082 333.938Z" fill="#DE8E68"/>
<path d="M108.562 279.421L201.768 297.935L198.027 268.999L104.817 250.485L108.562 279.421Z" fill="#D37C59"/>
<path d="M34.8514 323.331L88.2168 333.931L104.81 250.481L51.4443 239.882L34.8514 323.331Z" fill="#D37C59"/>
<path d="M90.5496 275.84L37.2856 265.26L51.5572 239.901L104.817 250.485L90.5496 275.84Z" fill="#DE8E68"/>
<path d="M123.997 341.045L145.63 345.342L150.525 320.724L128.891 316.427L123.997 341.045Z" fill="#D37C59"/>
<path d="M100.635 301.642L133.215 308.113L136.788 290.142L104.209 283.671L100.635 301.642Z" fill="#FED385"/>
<path d="M123.422 303.437L130.787 304.9L133.383 291.844L126.018 290.382L123.422 303.437Z" fill="#FD8369"/>
<path d="M105.548 288.974L123.95 292.629L124.444 290.142L106.042 286.487L105.548 288.974Z" fill="#FD8369"/>
<path d="M104.696 293.229L123.099 296.884L123.593 294.397L105.191 290.742L104.696 293.229Z" fill="#FD8369"/>
</g>
<defs>
<clipPath id="clip0">
<rect width="298" height="354" fill="white"/>
</clipPath>
</defs>
</svg>
